<svg version="1.2" xmlns="http://www.w3.org/2000/svg" viewBox="0 0 334 633" width="334" height="633"><style>.a{fill:#f2f2f2}.b{fill:#2f2e41}.c{fill:#e6e6e6}.d{fill:#a0616a}</style><path class="a" d="m4.1 187.3c1.1 0 2.1-0.3 3-0.8 0.9-0.6 1.6-1.4 2-2.4 0.4-0.9 0.5-2 0.2-3-0.2-1-0.7-2-1.5-2.7-0.1-0.5-0.2-0.8-0.3-1.4q0-0.1 0.1-0.3c4.7-11.2 20.6-11.1 25.2 0.1 4.2 9.9 9.4 19.9 10.7 30.4q0.2 1.7 0.3 3.5 0 1.7-0.1 3.5 0 1.7-0.3 3.5-0.2 1.7-0.6 3.4 3.6-7.9 6.4-16.1 2.7-8.3 4.6-16.8 1.8-8.5 2.8-17.1 0.9-8.6 0.9-17.3 0-2.2 0-4.4-0.1-2.2-0.2-4.4-0.1-2.2-0.3-4.3-0.2-2.2-0.4-4.4-0.8-7.1-2.3-14.1-1.9-9.5-5-18.8-3-9.2-7.1-17.9-4.1-8.8-9.2-17.1-5.1-8.2-11.2-15.8-2.9-1.6-5.6-3.6-2.6-2-4.9-4.4-2.3-2.4-4.2-5.1-2-2.7-3.4-5.7-0.6-1.1-1-2.2-0.5-1.1-0.9-2.2-0.4-1.2-0.7-2.3-0.3-1.2-0.5-2.4c0.9 0.1 3.4-13.3 2.7-14.2 1.2-1.8 3.4-2.8 4.8-4.6 6.7-9.1 15.9-7.5 20.7 4.9 10.3 5.1 10.4 13.7 4.1 22-4 5.3-4.6 12.4-8.1 18q0.5 0.7 1.1 1.4 2.5 3.2 4.8 6.5 2.3 3.3 4.5 6.7 2.1 3.5 4.1 7 2 3.5 3.8 7.1c-1.4-10.7 0.7-23.6 4.1-31.9 3.9-9.4 11.3-17.4 17.7-25.6 7.8-9.8 23.8-5.5 25.1 7q0.1 0.1 0.1 0.3-1.5 0.8-2.8 1.7c-1.2 0.8-2.1 1.9-2.6 3.2-0.5 1.3-0.7 2.7-0.4 4.1 0.3 1.3 1.1 2.6 2.1 3.5 1 1 2.3 1.6 3.6 1.8h0.2q-0.2 1.3-0.3 2.6-0.2 1.3-0.4 2.6-0.3 1.3-0.5 2.6-0.3 1.2-0.6 2.5c8.3 32.1-9.7 43.8-35.3 44.3q-0.8 0.5-1.6 0.9 1.8 5.1 3.3 10.4 1.5 5.3 2.6 10.6 1.1 5.4 1.9 10.8 0.8 5.4 1.2 10.9 0.3 3.2 0.4 6.4 0.1 3.2 0.1 6.5 0 3.2-0.2 6.4-0.1 3.3-0.4 6.5l0.1-0.3q0.7-3.6 1.9-7 1.3-3.4 3.2-6.5 1.8-3.1 4.2-5.8 2.3-2.8 5.1-5.1c11.1-9.1 26.7-12.5 38.7-19.8 5.8-3.5 13.2 1 12.1 7.7q0 0.2 0 0.3-0.7 0.3-1.3 0.6-0.7 0.3-1.3 0.6-0.7 0.3-1.3 0.6-0.7 0.4-1.3 0.7-1.4 0.8-2.8 1.8c-1.2 0.7-2.1 1.8-2.6 3.1-0.5 1.3-0.6 2.7-0.3 4.1 0.3 1.3 1 2.6 2 3.5 1 1 2.3 1.6 3.7 1.8h0.1q0.1 0.1 0.3 0.1-1.2 2.7-2.5 5.3-1.4 2.6-3 5.1-1.6 2.5-3.4 4.9-1.8 2.3-3.8 4.5c-5.1 28-27.4 30.7-51.3 22.5q-1 4.3-2.2 8.5-1.2 4.2-2.6 8.3-1.4 4.2-3.1 8.2-1.6 4.1-3.4 8h-40.5q-0.2-0.6-0.4-1.3 1.4 0.1 2.8 0.1 1.5 0 2.9-0.1 1.4-0.1 2.8-0.3 1.3-0.1 2.7-0.4-4.5-5.5-9-11.1 0 0 0 0 0 0-0.1-0.1 0 0 0 0 0 0-0.1-0.1-2.2-2.8-4.5-5.6-0.1-2.2 0-4.3 0.1-2.2 0.4-4.3 0.2-2.2 0.6-4.3 0.4-2.1 0.9-4.2z"/><path class="b" d="m133.9 83.8c-7.5-27.4 53.1-50.9 69-28.8 2.2-3.2 10.4-5.1 14.2-4.1 3.7 1 6.9 3.4 10 5.7 4.2 3.2 8.6 6.6 11.2 11.3 2.6 4.7 3 11-0.5 15-2.8 3.3-11 5.3-15.2 6.2-3 0.6-5.4 1.1-7.5 1.4q-0.8-1-1.3-2.2-0.5-1.1-0.8-2.3-0.3-1.2-0.5-2.5-0.1-1.2 0.1-2.5-1.1 0.7-2 1.7-0.9 0.9-1.5 2-0.7 1.1-1.1 2.4-0.4 1.2-0.5 2.5c-0.1 0.7 23.6 87.9 23.6 87.9q-1 0.6-2.1 1.2-1.1 0.5-2.2 1.1-1.2 0.5-2.3 0.9-1.2 0.5-2.3 0.8-2.3-3.5-4.3-7.1-2.1-3.7-3.8-7.5-1.8-3.9-3.2-7.8-1.5-3.9-2.7-8-0.2 2.7-0.4 5.4-0.1 2.8 0 5.5 0 2.7 0.2 5.4 0.2 2.7 0.5 5.4 0.2 1.5 0.4 3 0.2 1.5 0.5 3 0.2 1.5 0.5 3 0.3 1.5 0.6 3c-28.1 6.1-70.5 4.1-89-21.8q0-0.2 0-0.3c0-1-0.4-2-1-2.8-0.7-0.8-1.6-1.3-2.6-1.5-1-0.2-2 0-2.9 0.5-0.9 0.5-1.6 1.3-2 2.2q-0.6 1.8-1.2 3c-5.4-19.3 1.6-41.5 22.1-80.3z"/><path class="b" d="m86 543.2v0.9q-0.1-0.1-0.1-0.2 0-0.1 0-0.2 0-0.2 0-0.3 0-0.1 0.1-0.2z"/><path class="b" d="m113.6 388.1q0.2 0 0.5-0.1 0.3-0.1 0.5-0.1 0.3-0.1 0.6-0.1 0.3-0.1 0.5-0.1-1.2 0.2-2.1 0.4z"/><path class="b" d="m112.9 388.3q0.3-0.1 0.7-0.2-0.4 0.1-0.7 0.2z"/><path class="b" d="m316.8 633h-103.3q-1.1-0.9-1.8-2.1-0.8-1.2-1.1-2.6-0.3-1.3-0.1-2.7 0.2-1.5 0.8-2.7c2.8-6.5-2.7-12.4-2.7-12.4q-1.4-1.6-2.4-3.6-0.9-1.9-1.4-4.1-0.5-2.1-0.4-4.2 0.1-2.2 0.6-4.3c2.8-9.5-7.9-36.5-7.9-36.5 0 0-5.8 34.8-12.9 75.2h-98.2q-1.3-2.1-1.9-4.5-0.6-2.3-0.7-4.7 0.1-2.5 0.7-4.8 0.6-2.4 1.9-4.5c5.7-9.7 0-11.6 0-11.6 0 0-5.8-10.8 0-18.7 5.7-7.9 0-40.1 0-40.1 0.2 1.4 1.8-1.2 4.3-6.6 3.8-8.2 9.7-23.1 15.6-40.3 4.2-12.3 8.5-25.9 12-39.1q1.4-5.2 2.7-10.4c1.6-6.6 3-13.2 4.1-19.3 2.3-13.1 3-24.4 1.3-31.8-1.5-6.1-4.7-9.5-10.3-8.9 3-0.5 7.4-0.9 12.7-1.4q1.5-0.1 3-0.2c40-3 125.7-4.8 125.7-4.8l26.3 47.1 33.3 59.5c0 0-0.9 80 0.1 145.1z"/><path class="c" d="m206.5 178l-60.5-12.8-12 24.2-40.4 23.4c0 0 26 106.6 25.9 121.6-0.4 38.1-61.3 123.5-15.3 116.9 46-6.6 55.4-34.1 70.1-29.7 13.4 3.9 29.6 21.4 40.5 8.9 10.9-12.5 14.8 1.9 21.6 2.4 3.3 0.2 1.3-15.8 9.6 0.5 8.2 16.3 51.9-5.6 37.1-20.4-24.7-24.7-29.7-206.4-29.7-206.4l-27.4-8.4z"/><path class="d" d="m92.4 565.3c1.2-1.4 2.1-3.1 2.7-4.9 0.6-1.8 0.8-3.6 0.7-5.5-0.2-1.9-0.7-3.7-1.5-5.4-0.8-1.7-2-3.2-3.4-4.4q-0.2-0.2-0.4-0.4-0.3-0.2-0.5-0.3-0.2-0.2-0.5-0.4-0.2-0.1-0.5-0.3l10.2-49.6-23.4-14-6.5 69.5c-0.7 1.4-1.2 3-1.4 4.5-0.3 1.6-0.2 3.2 0.1 4.8 0.3 1.5 0.8 3 1.6 4.4 0.8 1.4 1.8 2.6 3 3.7 1.4 1.2 3 2.1 4.7 2.7 1.7 0.5 3.6 0.8 5.4 0.6 1.8-0.1 3.6-0.6 5.2-1.4 1.6-0.8 3.1-1.9 4.3-3.3q0.1-0.2 0.2-0.3z"/><path class="c" d="m165 303.6c-0.1-1.6-2.1-2.4-5-3.4q-1-0.3-2.1-0.7-1-0.4-2-0.9-1-0.4-2-1-0.9-0.5-1.9-1.2c-6.2-4.5-3.8-9.2-0.4-15.7 0.7-1.3 1.4-2.6 2-4 2-4-1.1-20.8-9.1-49.8-2.4-8.9-2.4-15.3-4.1-19.4-1.7-4.2-5.1-6.3-14.3-6.7q-4.2-0.2-8.3 0.4-4.1 0.6-8 2-3.9 1.4-7.5 3.5-3.6 2.1-6.7 4.9-0.3 0.3-0.6 0.6-0.7 0.6-1.3 1.2-2.8 2.9-5.1 6.3-2.3 3.3-3.8 7.1-1.6 3.7-2.4 7.7-0.9 3.9-1 8v1.8l-1.9 88.7-5.4 77.7-7.4 107.2 5.5 0.2 21.8 1.1 2.7 0.2 6.3-26.4 7.5-31.7 2.8-11.7 8.6-36.1 4.1-16.9 2.4-10.3 1-4.2 4.9-20.5c0.1-0.4 11.3-44.7 24.3-52.1 4.8-2.8 6.6-4.4 6.4-5.9z"/><path class="d" d="m310.4 564.8c-1.4-1.3-2.5-2.9-3.2-4.6-0.8-1.7-1.2-3.5-1.3-5.4-0.1-1.9 0.2-3.8 0.9-5.5 0.6-1.8 1.6-3.4 2.9-4.8q0.2-0.2 0.4-0.4 0.2-0.2 0.4-0.4 0.2-0.2 0.4-0.4 0.3-0.1 0.5-0.3l-15.4-48.3 21.7-16.4 14 68.4c0.8 1.3 1.5 2.8 1.9 4.3 0.4 1.6 0.5 3.2 0.4 4.7-0.2 1.6-0.6 3.2-1.2 4.6-0.6 1.5-1.5 2.8-2.6 4-1.2 1.3-2.7 2.4-4.4 3.2-1.6 0.7-3.4 1.2-5.2 1.2-1.8 0.1-3.7-0.2-5.4-0.8-1.7-0.7-3.2-1.6-4.6-2.9q-0.1-0.1-0.2-0.2z"/><path class="c" d="m321 460c0 0-17-59.7-11.8-66.1 5.2-6.5-10.1-7.8-3.5-19.8 6.6-12-2.5-14.1-2.5-14.1l-5-27.6-8.8-68-0.2-2-2.6-19.8q-0.5-4.2-1.9-8.3-1.4-4-3.5-7.7-2.2-3.7-5-6.9-2.9-3.1-6.3-5.7-0.3-0.3-0.7-0.5-1.6-1.2-3.3-2.2-3.2-1.8-6.6-3.1-3.4-1.3-7-2-3.6-0.7-7.3-0.7-3.6-0.1-7.2 0.5c-18.3 2.8-12.6 9.6-15.6 27.9-4.8 29.7-6.1 46.7-3.7 50.5 0.8 1.3 1.6 2.6 2.4 3.8 4.1 6.1 7 10.5 1.3 15.7q-0.9 0.7-1.8 1.3-0.9 0.7-1.8 1.3-1 0.5-1.9 1-1 0.6-2 1c-2.7 1.3-4.7 2.2-4.7 3.8 0.1 1.6 2 3 7.1 5.2 6.1 2.7 12.8 12.9 18.2 23.4q1.6 3.1 3.2 6.3 1.5 3.2 2.9 6.5 1.5 3.2 2.8 6.5 1.4 3.3 2.6 6.6l46.7 131.3 7.7 21.5 2.6-0.5 21.6-3.4 5.4-0.8z"/><path fill-rule="evenodd" class="d" d="m181 164.3c-27.3 0-49.4-22.1-49.4-49.4 0-27.3 22.1-49.4 49.4-49.4 27.3 0 49.4 22.1 49.4 49.4 0 27.3-22.1 49.4-49.4 49.4z"/><path class="b" d="m121 78.7c-7.5-27.4 53.1-50.9 69-28.9 2.2-3.1 10.4-5 14.1-4.1 3.8 1 6.9 3.4 10 5.7 4.3 3.3 8.6 6.7 11.2 11.3 2.7 4.7 3.1 11.1-0.5 15.1-2.7 3.2-11 5.3-15.2 6.1-2.9 0.6-5.4 1.1-7.5 1.5q-0.7-1.1-1.2-2.2-0.6-1.2-0.9-2.4-0.3-1.2-0.4-2.4-0.1-1.3 0-2.5-1.1 0.7-1.9 1.6-0.9 1-1.6 2.1-0.6 1.1-1 2.3-0.4 1.2-0.6 2.5c0 0.7 23.7 88 23.7 88q-1.1 0.6-2.2 1.1-1.1 0.6-2.2 1.1-1.1 0.5-2.3 1-1.1 0.4-2.3 0.8-2.3-3.5-4.3-7.2-2-3.7-3.8-7.5-1.7-3.8-3.2-7.7-1.5-4-2.6-8-0.3 2.7-0.4 5.4-0.1 2.7-0.1 5.4 0 2.7 0.2 5.4 0.2 2.7 0.5 5.4 0.2 1.6 0.4 3.1 0.3 1.5 0.5 3 0.3 1.5 0.6 3 0.3 1.4 0.6 2.9c-28.2 6.1-70.6 4.1-89-21.8q0-0.1 0-0.3c0-1-0.4-2-1.1-2.8-0.6-0.7-1.5-1.3-2.5-1.4-1-0.2-2.1-0.1-3 0.4-0.9 0.5-1.6 1.3-1.9 2.3q-0.7 1.7-1.2 2.9c-5.4-19.2 1.5-41.4 22.1-80.2z"/></svg>